<svg xmlns="http://www.w3.org/2000/svg" xml:space="preserve" width="595.279" height="595.275" viewBox="0 123.307 595.279 595.275"><path fill="#FCFCFC" d="M519.555 329.297a161.952 161.952 0 0 0-10.393-54.964 114.34 114.34 0 0 0-65.307-65.307 163.826 163.826 0 0 0-54.221-10.417c-23.86-1.066-31.426-1.364-91.995-1.364s-68.333 0-92.021 1.364a163.863 163.863 0 0 0-54.195 10.417 114.27 114.27 0 0 0-65.307 65.307 162.567 162.567 0 0 0-10.393 54.195c-1.066 23.886-1.39 31.451-1.39 92.021s0 68.309 1.39 92.02a163.576 163.576 0 0 0 10.393 54.246 114.336 114.336 0 0 0 65.332 65.281 163.297 163.297 0 0 0 54.195 11.162c23.886 1.066 31.45 1.389 92.021 1.389 60.569 0 68.333 0 92.02-1.389a163.45 163.45 0 0 0 54.221-10.393 114.466 114.466 0 0 0 65.307-65.307c6.523-17.363 10.021-35.668 10.393-54.246 1.066-23.859 1.39-31.426 1.39-92.02-.05-60.569-.05-68.258-1.44-91.995zM297.491 535.089c-63.348 0-114.666-51.316-114.666-114.665 0-63.348 51.318-114.666 114.666-114.666 63.328 0 114.665 51.338 114.665 114.666 0 63.327-51.336 114.665-114.665 114.665zm119.23-206.834c-14.754.014-26.725-11.935-26.738-26.688v-.049c0-14.76 11.966-26.726 26.726-26.726 14.761 0 26.726 11.965 26.726 26.726-.001 14.782-11.956 26.737-26.714 26.737z"/><circle cx="297.491" cy="420.424" r="74.484" fill="#FCFCFC"/></svg>